<svg version="1.1" xmlns="http://www.w3.org/2000/svg" viewBox="0 0 1372 553" width="1372" height="553">
  <!-- svg-source:excalidraw -->
  
  <defs>
    <style class="style-fonts">
      @font-face {
        font-family: "Virgil";
        src: url("https://excalidraw.com/Virgil.woff2");
      }
      @font-face {
        font-family: "Cascadia";
        src: url("https://excalidraw.com/Cascadia.woff2");
      }
    </style>
  </defs>
  <rect x="0" y="0" width="1372" height="553" fill="#ffffff"></rect><g stroke-linecap="round" transform="translate(10 32) rotate(0 159 85)"><path d="M32 0 M32 0 C90.21 -2.79, 147.68 -1.31, 286 0 M32 0 C115.81 0.36, 201.37 -0.04, 286 0 M286 0 C306.34 1.73, 316.48 9.61, 318 32 M286 0 C309 -1.01, 316.26 10.12, 318 32 M318 32 C317.66 56.74, 317.45 83.8, 318 138 M318 32 C317.96 62.85, 318.87 93.47, 318 138 M318 138 C319.66 158.05, 306.09 170.32, 286 170 M318 138 C317.46 158.09, 306.75 170.93, 286 170 M286 170 C218.45 170.36, 151.93 169.08, 32 170 M286 170 C231.07 169.58, 176.19 169.5, 32 170 M32 170 C9.44 169.58, 1.44 157.56, 0 138 M32 170 C10.51 167.72, -2.25 158.94, 0 138 M0 138 C0.63 97.92, -2.74 55.88, 0 32 M0 138 C0.83 98.63, -0.57 59.59, 0 32 M0 32 C-0.47 9.98, 11.09 -0.38, 32 0 M0 32 C-2.02 11.94, 9.53 -1.9, 32 0" stroke="#1e1e1e" stroke-width="1" fill="none"></path></g><g transform="translate(129 44) rotate(0 41.015625 12)"><text x="0" y="0" font-family="Cascadia, Segoe UI Emoji" font-size="20px" fill="#1e1e1e" text-anchor="start" style="white-space: pre;" direction="ltr" dominant-baseline="text-before-edge">Project</text></g><g transform="translate(31 86) rotate(0 64.453125 12)"><text x="0" y="0" font-family="Cascadia, Segoe UI Emoji" font-size="20px" fill="#1e1e1e" text-anchor="start" style="white-space: pre;" direction="ltr" dominant-baseline="text-before-edge">Code_PK INT</text></g><g transform="translate(27 121) rotate(0 93.75 12)"><text x="0" y="0" font-family="Cascadia, Segoe UI Emoji" font-size="20px" fill="#1e1e1e" text-anchor="start" style="white-space: pre;" direction="ltr" dominant-baseline="text-before-edge">Name VARCHAR(50)</text></g><g transform="translate(27 153) rotate(0 140.625 12)"><text x="0" y="0" font-family="Cascadia, Segoe UI Emoji" font-size="20px" fill="#1e1e1e" text-anchor="start" style="white-space: pre;" direction="ltr" dominant-baseline="text-before-edge">Description VARCHAR(300)</text></g><g stroke-linecap="round" transform="translate(891 10) rotate(0 147 100)"><path d="M32 0 M32 0 C80.56 0.39, 130.72 2.67, 262 0 M32 0 C105.25 -0.44, 178.06 -1.45, 262 0 M262 0 C283.11 0.38, 293.43 12.4, 294 32 M262 0 C281.48 -0.29, 296.17 11.44, 294 32 M294 32 C293.01 77.15, 291.57 121.12, 294 168 M294 32 C293.81 76.8, 293.39 123.18, 294 168 M294 168 C294.9 189.02, 283.66 199.27, 262 200 M294 168 C293.77 190.35, 283.03 201.76, 262 200 M262 200 C186.24 200.36, 111.73 200.06, 32 200 M262 200 C177.58 200.89, 93.6 199.87, 32 200 M32 200 C12.61 198.58, -1.05 191.17, 0 168 M32 200 C12.26 202.11, 0.46 189.03, 0 168 M0 168 C-1.48 128.93, -1.15 87.96, 0 32 M0 168 C-0.33 127.86, -0.61 86.26, 0 32 M0 32 C1.7 9.98, 9.71 -0.63, 32 0 M0 32 C1.19 8.4, 9.64 0.08, 32 0" stroke="#1e1e1e" stroke-width="1" fill="none"></path></g><g transform="translate(1003 22) rotate(0 46.875 12)"><text x="0" y="0" font-family="Cascadia, Segoe UI Emoji" font-size="20px" fill="#1e1e1e" text-anchor="start" style="white-space: pre;" direction="ltr" dominant-baseline="text-before-edge">Employee</text></g><g transform="translate(926 63) rotate(0 64.453125 12)"><text x="0" y="0" font-family="Cascadia, Segoe UI Emoji" font-size="20px" fill="#1e1e1e" text-anchor="start" style="white-space: pre;" direction="ltr" dominant-baseline="text-before-edge">Code_PK INT</text></g><g transform="translate(924 96) rotate(0 93.75 12)"><text x="0" y="0" font-family="Cascadia, Segoe UI Emoji" font-size="20px" fill="#1e1e1e" text-anchor="start" style="white-space: pre;" direction="ltr" dominant-baseline="text-before-edge">Name VARCHAR(50)</text></g><g transform="translate(925 129) rotate(0 82.03125 12)"><text x="0" y="0" font-family="Cascadia, Segoe UI Emoji" font-size="20px" fill="#1e1e1e" text-anchor="start" style="white-space: pre;" direction="ltr" dominant-baseline="text-before-edge">Section_FK INT</text></g><g transform="translate(924 161) rotate(0 111.328125 12)"><text x="0" y="0" font-family="Cascadia, Segoe UI Emoji" font-size="20px" fill="#1e1e1e" text-anchor="start" style="white-space: pre;" direction="ltr" dominant-baseline="text-before-edge">Job_Position_FK INT</text></g><g stroke-linecap="round" transform="translate(444 39) rotate(0 140 75.5)"><path d="M32 0 M32 0 C95.54 -0.74, 155.86 0.84, 248 0 M32 0 C104.57 -0.41, 177.61 -0.56, 248 0 M248 0 C271.2 0.56, 281.64 8.88, 280 32 M248 0 C269.22 2.15, 280.78 12.15, 280 32 M280 32 C279.75 61.1, 281.24 89.26, 280 119 M280 32 C280.07 52.47, 278.87 74.77, 280 119 M280 119 C279.29 142.11, 268.92 149.75, 248 151 M280 119 C277.75 141.42, 269.73 149.09, 248 151 M248 151 C187.36 150.51, 127.07 148.93, 32 151 M248 151 C181.56 152.04, 116.34 152.53, 32 151 M32 151 C8.78 149.72, -1.62 139.41, 0 119 M32 151 C11.37 152.93, -0.31 138.27, 0 119 M0 119 C-1.42 98.02, 1.43 76.48, 0 32 M0 119 C0.36 93.18, 0.91 66.84, 0 32 M0 32 C-0.33 12.5, 9.48 -1.18, 32 0 M0 32 C1.21 9.21, 10.79 -1.89, 32 0" stroke="#1e1e1e" stroke-width="1" fill="none"></path></g><g transform="translate(497 56) rotate(0 93.75 12)"><text x="0" y="0" font-family="Cascadia, Segoe UI Emoji" font-size="20px" fill="#1e1e1e" text-anchor="start" style="white-space: pre;" direction="ltr" dominant-baseline="text-before-edge">Project_Employee</text></g><g transform="translate(471 93) rotate(0 87.890625 36)"><text x="0" y="0" font-family="Cascadia, Segoe UI Emoji" font-size="20px" fill="#1e1e1e" text-anchor="start" style="white-space: pre;" direction="ltr" dominant-baseline="text-before-edge">Id_PK INT</text><text x="0" y="24" font-family="Cascadia, Segoe UI Emoji" font-size="20px" fill="#1e1e1e" text-anchor="start" style="white-space: pre;" direction="ltr" dominant-baseline="text-before-edge">Employee_FK INT</text><text x="0" y="48" font-family="Cascadia, Segoe UI Emoji" font-size="20px" fill="#1e1e1e" text-anchor="start" style="white-space: pre;" direction="ltr" dominant-baseline="text-before-edge">Project_FK INT</text></g><g stroke-linecap="round" transform="translate(1026 332) rotate(0 168 74.5)"><path d="M32 0 M32 0 C126.73 0.19, 223.87 0.07, 304 0 M32 0 C123.7 1.53, 215.38 0.54, 304 0 M304 0 C325.98 -0.99, 337.73 10.79, 336 32 M304 0 C325.66 -1.78, 336.92 9.38, 336 32 M336 32 C334.06 62.42, 336.14 91.65, 336 117 M336 32 C335.67 59.56, 335.84 87.46, 336 117 M336 117 C336.96 138.51, 324.84 150.22, 304 149 M336 117 C334.45 138.94, 327.48 149.69, 304 149 M304 149 C247.06 151, 190.78 148.59, 32 149 M304 149 C201.54 147.11, 98.9 147.19, 32 149 M32 149 C12.26 150.71, -0.03 138.18, 0 117 M32 149 C8.53 147.56, 0.01 138.41, 0 117 M0 117 C-2.2 85.98, 0.09 53.49, 0 32 M0 117 C1.38 99.85, 0.41 82.37, 0 32 M0 32 C-1.9 12.61, 11.28 -1.77, 32 0 M0 32 C0.01 8.83, 10.74 -1.3, 32 0" stroke="#1e1e1e" stroke-width="1" fill="none"></path></g><g transform="translate(1150 344) rotate(0 41.015625 12)"><text x="0" y="0" font-family="Cascadia, Segoe UI Emoji" font-size="20px" fill="#1e1e1e" text-anchor="start" style="white-space: pre;" direction="ltr" dominant-baseline="text-before-edge">Section</text></g><g transform="translate(1051 381) rotate(0 140.625 36)"><text x="0" y="0" font-family="Cascadia, Segoe UI Emoji" font-size="20px" fill="#1e1e1e" text-anchor="start" style="white-space: pre;" direction="ltr" dominant-baseline="text-before-edge">Code_PK INT</text><text x="0" y="24" font-family="Cascadia, Segoe UI Emoji" font-size="20px" fill="#1e1e1e" text-anchor="start" style="white-space: pre;" direction="ltr" dominant-baseline="text-before-edge">Name VARCHAR(25)</text><text x="0" y="48" font-family="Cascadia, Segoe UI Emoji" font-size="20px" fill="#1e1e1e" text-anchor="start" style="white-space: pre;" direction="ltr" dominant-baseline="text-before-edge">Description VARCHAR(300)</text></g><g stroke-linecap="round" transform="translate(567 373) rotate(0 164.5 85)"><path d="M32 0 M32 0 C109.36 1.24, 188.21 0.95, 297 0 M32 0 C111.38 -0.76, 189.98 0.34, 297 0 M297 0 C316.57 0.74, 330.33 11.99, 329 32 M297 0 C319.65 -0.8, 327.71 12.01, 329 32 M329 32 C328.17 70.38, 330.67 108.98, 329 138 M329 32 C329.27 56.49, 328.04 82.08, 329 138 M329 138 C329.2 157.98, 317.16 170, 297 170 M329 138 C326.74 157.59, 316.2 170.08, 297 170 M297 170 C197.78 168.51, 100.83 169.56, 32 170 M297 170 C213.68 170.03, 131.56 169.69, 32 170 M32 170 C9.5 169.46, -1.57 158.8, 0 138 M32 170 C10.59 168.18, 0.25 158.55, 0 138 M0 138 C1.49 105.71, 2.13 70.62, 0 32 M0 138 C0.86 116.4, 1.5 92.53, 0 32 M0 32 C-0.78 10.58, 8.97 -0.78, 32 0 M0 32 C-0.15 11.32, 11.6 -0.52, 32 0" stroke="#1e1e1e" stroke-width="1" fill="none"></path></g><g transform="translate(649 391) rotate(0 70.3125 12)"><text x="0" y="0" font-family="Cascadia, Segoe UI Emoji" font-size="20px" fill="#1e1e1e" text-anchor="start" style="white-space: pre;" direction="ltr" dominant-baseline="text-before-edge">Job_Position</text></g><g transform="translate(584 434) rotate(0 140.625 48)"><text x="0" y="0" font-family="Cascadia, Segoe UI Emoji" font-size="20px" fill="#1e1e1e" text-anchor="start" style="white-space: pre;" direction="ltr" dominant-baseline="text-before-edge">Code_PK INT</text><text x="0" y="24" font-family="Cascadia, Segoe UI Emoji" font-size="20px" fill="#1e1e1e" text-anchor="start" style="white-space: pre;" direction="ltr" dominant-baseline="text-before-edge">Name VARCHAR(25)</text><text x="0" y="48" font-family="Cascadia, Segoe UI Emoji" font-size="20px" fill="#1e1e1e" text-anchor="start" style="white-space: pre;" direction="ltr" dominant-baseline="text-before-edge">Description VARCHAR(300)</text><text x="0" y="72" font-family="Cascadia, Segoe UI Emoji" font-size="20px" fill="#1e1e1e" text-anchor="start" style="white-space: pre;" direction="ltr" dominant-baseline="text-before-edge">Salary DECIMAL(10, 2)</text></g><g stroke-linecap="round"><g transform="translate(201 98) rotate(0 130.25750589855016 28.29318421132309)"><path d="M-1.11 0.25 C42.57 9.72, 217.95 47.87, 261.63 57.25 M0.5 -0.66 C44.13 8.44, 217.73 45.82, 261.01 55.59" stroke="#1e1e1e" stroke-width="1" fill="none"></path></g><g transform="translate(201 98) rotate(0 130.25750589855016 28.29318421132309)"><path d="M231.69 60.61 C240.46 58.78, 247.02 56.02, 260.83 54.06 M230.4 58.75 C237.8 57.62, 243.62 58.14, 261.29 54.62" stroke="#1e1e1e" stroke-width="1" fill="none"></path></g><g transform="translate(201 98) rotate(0 130.25750589855016 28.29318421132309)"><path d="M236.1 40.57 C243.79 43.91, 249.2 46.35, 260.83 54.06 M234.8 38.71 C241.31 41.94, 246.17 46.8, 261.29 54.62" stroke="#1e1e1e" stroke-width="1" fill="none"></path></g></g><mask></mask><g stroke-linecap="round"><g transform="translate(917 75.80293738052353) rotate(0 -127.9286319881491 26.309381363965574)"><path d="M-0.63 -0.98 C-43.44 7.67, -213.83 43.58, -256.6 52.45 M1.25 1.12 C-41.67 9.87, -213.92 44.93, -257.1 53.6" stroke="#1e1e1e" stroke-width="1" fill="none"></path></g><g transform="translate(917 75.80293738052353) rotate(0 -127.9286319881491 26.309381363965574)"><path d="M-233.14 39.35 C-240.94 43.21, -249.45 47, -257.03 55.24 M-231.35 37.47 C-238.42 41.11, -244.26 45.5, -257 53.77" stroke="#1e1e1e" stroke-width="1" fill="none"></path></g><g transform="translate(917 75.80293738052353) rotate(0 -127.9286319881491 26.309381363965574)"><path d="M-229.07 59.46 C-238.27 56.83, -248.09 54.13, -257.03 55.24 M-227.28 57.58 C-235.45 56.24, -242.29 55.61, -257 53.77" stroke="#1e1e1e" stroke-width="1" fill="none"></path></g></g><mask></mask><g stroke-linecap="round"><g transform="translate(812 356) rotate(0 47.473566832926394 -90.73568315143447)"><path d="M-0.56 0.71 C0.36 -26.27, -11.31 -132.79, 5.23 -163.04 C21.76 -193.29, 83.04 -177.88, 98.65 -180.78 M1.35 0.04 C2.15 -26.64, -11.75 -131.58, 4.4 -161.52 C20.55 -191.47, 82.36 -176.65, 98.23 -179.62" stroke="#1e1e1e" stroke-width="1" fill="none"></path></g><g transform="translate(812 356) rotate(0 47.473566832926394 -90.73568315143447)"><path d="M71.05 -169.5 C77.8 -171.38, 85.28 -173.66, 98.29 -178.79 M70.37 -170.22 C80.17 -173.75, 91.31 -176.85, 97.7 -180.26" stroke="#1e1e1e" stroke-width="1" fill="none"></path></g><g transform="translate(812 356) rotate(0 47.473566832926394 -90.73568315143447)"><path d="M71.42 -190.01 C77.87 -186.17, 85.25 -182.73, 98.29 -178.79 M70.75 -190.74 C80.3 -186.43, 91.29 -181.68, 97.7 -180.26" stroke="#1e1e1e" stroke-width="1" fill="none"></path></g></g><mask></mask><g stroke-linecap="round"><g transform="translate(1276 312) rotate(0 -86.15856094781304 -88.3594722323264)"><path d="M0.63 -0.34 C-3.57 -26.55, 4.86 -129.03, -24.01 -158.11 C-52.89 -187.19, -147.59 -172.14, -172.61 -174.83 M-0.5 -1.57 C-4.87 -27.51, 4.3 -127.9, -24.44 -156.63 C-53.18 -185.36, -147.97 -171.17, -172.95 -173.93" stroke="#1e1e1e" stroke-width="1" fill="none"></path></g><g transform="translate(1276 312) rotate(0 -86.15856094781304 -88.3594722323264)"><path d="M-145.46 -182.9 C-156.33 -178.8, -168.66 -177.13, -173.28 -175.47 M-145.13 -185.45 C-155.26 -180.77, -165.48 -176.77, -173.56 -173.72" stroke="#1e1e1e" stroke-width="1" fill="none"></path></g><g transform="translate(1276 312) rotate(0 -86.15856094781304 -88.3594722323264)"><path d="M-145.2 -162.38 C-156.03 -166.45, -168.47 -172.96, -173.28 -175.47 M-144.87 -164.93 C-155.27 -167.86, -165.58 -171.47, -173.56 -173.72" stroke="#1e1e1e" stroke-width="1" fill="none"></path></g></g><mask></mask><g transform="translate(36 404) rotate(0 222.65625 60)"><text x="0" y="0" font-family="Cascadia, Segoe UI Emoji" font-size="20px" fill="#1e1e1e" text-anchor="start" style="white-space: pre;" direction="ltr" dominant-baseline="text-before-edge">CREATE TABLE job_position (</text><text x="0" y="24" font-family="Cascadia, Segoe UI Emoji" font-size="20px" fill="#1e1e1e" text-anchor="start" style="white-space: pre;" direction="ltr" dominant-baseline="text-before-edge">    code   INT            PRIMARY KEY,</text><text x="0" y="48" font-family="Cascadia, Segoe UI Emoji" font-size="20px" fill="#1e1e1e" text-anchor="start" style="white-space: pre;" direction="ltr" dominant-baseline="text-before-edge">    name   VARCHAR(25)    NOT NULL,</text><text x="0" y="72" font-family="Cascadia, Segoe UI Emoji" font-size="20px" fill="#1e1e1e" text-anchor="start" style="white-space: pre;" direction="ltr" dominant-baseline="text-before-edge">    salary DECIMAL(10, 2) NOT NULL</text><text x="0" y="96" font-family="Cascadia, Segoe UI Emoji" font-size="20px" fill="#1e1e1e" text-anchor="start" style="white-space: pre;" direction="ltr" dominant-baseline="text-before-edge">);</text></g><g transform="translate(82 358) rotate(0 139.453125 16.80000000000001)"><text x="0" y="0" font-family="Cascadia, Segoe UI Emoji" font-size="28px" fill="#1e1e1e" text-anchor="start" style="white-space: pre;" direction="ltr" dominant-baseline="text-before-edge">DDL Job_Poisition</text></g></svg>