<svg xmlns="http://www.w3.org/2000/svg" xmlns:xlink="http://www.w3.org/1999/xlink" version="1.1" x="0px" y="0px" viewBox="0 0 512 640" style="enable-background:new 0 0 512 512;" xml:space="preserve"><g><g><g><g><g><g><path d="M441.888,184.078c-6.411,0-12.438-2.497-16.971-7.029l-88.964-88.964c-9.357-9.358-9.357-24.583,0-33.941l2.98-2.982        c4.534-4.533,10.561-7.03,16.972-7.03c6.41,0,12.437,2.497,16.97,7.029l88.964,88.964c4.533,4.533,7.03,10.56,7.03,16.971        s-2.497,12.438-7.03,16.971l-2.98,2.982C454.324,181.581,448.298,184.078,441.888,184.078z M355.905,52.131        c-4.274,0-8.292,1.664-11.314,4.687l-2.98,2.982c-6.239,6.239-6.239,16.389-0.001,22.627l88.964,88.964        c3.022,3.022,7.04,4.687,11.314,4.687c4.273,0,8.291-1.664,11.313-4.687l2.98-2.982c6.239-6.239,6.239-16.389,0.001-22.627        l-88.964-88.964C364.196,53.795,360.179,52.131,355.905,52.131z"/></g><g><path d="M105.775,473.29c-6.411,0-12.438-2.497-16.971-7.03L46.74,424.195c-4.533-4.533-7.029-10.56-7.029-16.97        c0-6.411,2.497-12.438,7.029-16.971l2.982-2.982c4.533-4.532,10.56-7.028,16.97-7.028s12.438,2.496,16.971,7.029        l42.065,42.064c4.533,4.533,7.029,10.56,7.029,16.97c0,6.411-2.497,12.438-7.029,16.971l-2.982,2.982        C118.213,470.793,112.186,473.29,105.775,473.29z M66.692,388.244c-4.274,0-8.292,1.664-11.313,4.686l-2.982,2.982        c-3.021,3.021-4.686,7.039-4.686,11.313c0,4.273,1.665,8.291,4.687,11.313l42.064,42.064c3.022,3.021,7.04,4.687,11.314,4.687        c4.273,0,8.292-1.665,11.313-4.687l2.982-2.982c3.021-3.021,4.686-7.039,4.686-11.313c0-4.273-1.665-8.291-4.687-11.313        L78.006,392.93C74.984,389.908,70.966,388.244,66.692,388.244z"/></g><g><path d="M229.016,456.028c-6.285,0-12.194-2.448-16.638-6.893l-51.887-51.887l-36.254,36.254        c-0.75,0.75-1.768,1.172-2.829,1.172s-2.078-0.422-2.829-1.172L79.497,394.42c-1.562-1.562-1.562-4.095,0-5.656        l208.634-208.632c15.29-15.291,26.986-34.217,33.824-54.73c0.012-0.035,0.023-0.069,0.036-0.103l14.522-39.919        c0.467-1.285,1.559-2.242,2.893-2.538c1.337-0.295,2.729,0.11,3.694,1.077l85.981,85.981c0.967,0.967,1.373,2.36,1.077,3.695        s-1.253,2.425-2.538,2.893l-39.92,14.522c-0.034,0.013-0.068,0.024-0.103,0.036c-18.963,6.321-36.6,16.82-51.243,30.472        l51.82,51.822c9.174,9.174,9.174,24.102,0,33.274L245.654,449.136C241.209,453.58,235.301,456.028,229.016,456.028z         M160.491,387.592c1.024,0,2.047,0.391,2.829,1.172l54.716,54.716c2.933,2.933,6.833,4.549,10.98,4.549        s8.047-1.616,10.98-4.549L382.52,300.958c6.054-6.055,6.054-15.906-0.001-21.962l-54.706-54.708        c-0.753-0.753-1.175-1.775-1.172-2.84s0.431-2.084,1.188-2.833c16.043-15.858,35.816-28.009,57.188-35.142l33.969-12.357        l-77.101-77.1l-12.357,33.968c-7.231,21.666-19.589,41.652-35.74,57.804L87.982,391.592l33.426,33.426l36.254-36.254        C158.444,387.982,159.467,387.592,160.491,387.592z"/></g><g><path d="M230.84,396.091c-5.787,0-11.228-2.254-15.32-6.345l-14.099-14.1c-8.448-8.447-8.448-22.193,0-30.641l84.448-84.447        c4.092-4.093,9.533-6.347,15.32-6.347s11.229,2.254,15.32,6.347l14.099,14.099c8.447,8.447,8.447,22.192,0.001,30.641        l-84.449,84.447C242.068,393.837,236.627,396.091,230.84,396.091z M301.189,262.212c-3.65,0-7.082,1.422-9.664,4.003        l-84.447,84.447c-2.582,2.582-4.003,6.014-4.003,9.664s1.421,7.082,4.003,9.664l14.098,14.099        c2.581,2.58,6.013,4.002,9.664,4.002s7.083-1.422,9.664-4.003l84.448-84.446c5.328-5.329,5.328-14,0-19.328l-14.099-14.099        C308.271,263.634,304.84,262.212,301.189,262.212z"/></g><g><path d="M309.006,325.243c-1.023,0-2.048-0.391-2.828-1.172l-54.717-54.716c-1.562-1.562-1.562-4.095,0-5.656        c1.563-1.563,4.095-1.563,5.657,0l54.716,54.716c1.563,1.562,1.563,4.095,0,5.656        C311.054,324.853,310.029,325.243,309.006,325.243z"/></g><g><path d="M363.722,379.959c-1.023,0-2.048-0.391-2.828-1.172l-23.449-23.449c-1.563-1.562-1.563-4.095,0-5.656        c1.561-1.563,4.096-1.563,5.656,0l23.449,23.449c1.563,1.562,1.563,4.095,0,5.656        C365.77,379.568,364.745,379.959,363.722,379.959z"/></g><g><path d="M285.557,348.693c-1.023,0-2.047-0.391-2.828-1.172l-54.717-54.716c-1.562-1.562-1.562-4.095,0-5.656        c1.563-1.563,4.095-1.563,5.657,0l54.716,54.716c1.563,1.562,1.563,4.095,0,5.656        C287.604,348.303,286.58,348.693,285.557,348.693z"/></g><g><path d="M340.272,403.409c-1.023,0-2.048-0.391-2.828-1.172l-23.45-23.45c-1.563-1.562-1.563-4.095,0-5.656        c1.561-1.563,4.096-1.563,5.656,0l23.45,23.45c1.563,1.562,1.563,4.095,0,5.656        C342.32,403.019,341.296,403.409,340.272,403.409z"/></g><g><path d="M262.106,372.143c-1.023,0-2.048-0.391-2.828-1.172l-54.717-54.716c-1.562-1.562-1.562-4.095,0-5.656        c1.563-1.563,4.095-1.563,5.657,0l54.716,54.716c1.563,1.562,1.563,4.095,0,5.656        C264.154,371.752,263.13,372.143,262.106,372.143z"/></g><g><path d="M316.822,426.858c-1.023,0-2.048-0.391-2.828-1.172l-23.449-23.449c-1.563-1.562-1.563-4.095,0-5.656        c1.561-1.563,4.096-1.563,5.656,0l23.449,23.449c1.563,1.562,1.563,4.095,0,5.656        C318.87,426.468,317.846,426.858,316.822,426.858z"/></g></g><g><path d="M77.096,323.902c-14.396,0-26.109-11.712-26.109-26.108s11.712-26.108,26.109-26.108       c14.396,0,26.108,11.712,26.108,26.108S91.492,323.902,77.096,323.902z M77.096,279.686c-9.985,0-18.109,8.123-18.109,18.108       s8.124,18.108,18.109,18.108c9.985,0,18.108-8.123,18.108-18.108S87.081,279.686,77.096,279.686z"/></g><g><path d="M447.414,279.686c-11.349,0-20.581-9.233-20.581-20.582s9.232-20.581,20.581-20.581s20.582,9.232,20.582,20.581       S458.763,279.686,447.414,279.686z M447.414,246.522c-6.938,0-12.581,5.644-12.581,12.581c0,6.938,5.644,12.582,12.581,12.582       s12.582-5.645,12.582-12.582C459.996,252.167,454.352,246.522,447.414,246.522z"/></g></g><g><path d="M118.29,216.711h-30c-2.209,0-4-1.791-4-4s1.791-4,4-4h30c2.209,0,4,1.791,4,4S120.499,216.711,118.29,216.711z"/></g><g><path d="M168.29,246.711h-20c-2.209,0-4-1.791-4-4s1.791-4,4-4h20c2.209,0,4,1.791,4,4S170.499,246.711,168.29,246.711z"/></g><g><path d="M438.29,466.711h-50c-2.209,0-4-1.791-4-4s1.791-4,4-4h50c2.209,0,4,1.791,4,4S440.499,466.711,438.29,466.711z"/></g><g><path d="M468.29,436.711h-40c-2.209,0-4-1.791-4-4s1.791-4,4-4h40c2.209,0,4,1.791,4,4S470.499,436.711,468.29,436.711z"/></g><g><path d="M238.29,146.711c-13.234,0-24-10.766-24-24s10.766-24,24-24s24,10.766,24,24S251.523,146.711,238.29,146.711z       M238.29,106.711c-8.822,0-16,7.178-16,16s7.178,16,16,16c8.823,0,16-7.178,16-16S247.112,106.711,238.29,106.711z"/></g><g><path d="M258.29,126.711c-2.209,0-4-1.791-4-4v-60c0-1.763,1.154-3.317,2.841-3.828c1.686-0.513,3.51,0.143,4.487,1.609l20,30      c1.226,1.838,0.729,4.322-1.109,5.547c-1.839,1.226-4.323,0.728-5.547-1.109L262.29,75.922v46.789      C262.29,124.92,260.499,126.711,258.29,126.711z"/></g><g><path d="M68.29,126.711c-13.234,0-24-10.766-24-24s10.766-24,24-24s24,10.766,24,24S81.523,126.711,68.29,126.711z       M68.29,86.711c-8.822,0-16,7.178-16,16s7.178,16,16,16s16-7.178,16-16S77.112,86.711,68.29,86.711z"/></g><g><path d="M88.29,106.711c-2.209,0-4-1.791-4-4v-60c0-1.763,1.154-3.317,2.841-3.828c1.689-0.512,3.51,0.143,4.487,1.609l20,30      c1.226,1.838,0.729,4.322-1.109,5.547c-1.838,1.226-4.322,0.729-5.547-1.109L92.29,55.922v46.789      C92.29,104.92,90.499,106.711,88.29,106.711z"/></g></g></g></g><text x="0" y="527" fill="#000000" font-size="5px" font-weight="bold" font-family="'Helvetica Neue', Helvetica, Arial-Unicode, Arial, Sans-serif">Created by Flatart</text><text x="0" y="532" fill="#000000" font-size="5px" font-weight="bold" font-family="'Helvetica Neue', Helvetica, Arial-Unicode, Arial, Sans-serif">from the Noun Project</text></svg>