<svg xmlns="http://www.w3.org/2000/svg" xmlns:xlink="http://www.w3.org/1999/xlink" version="1.1" x="0px" y="0px" viewBox="28.012 27.796 455.976 570.5062499999999" style="enable-background:new 28.012 27.796 455.976 456.405;" xml:space="preserve"><g><path d="M353.797,354.162c-0.845,0.843-1.617,1.736-2.322,2.673l34.737,34.702c0.934-0.702,1.827-1.472,2.668-2.313   c0.847-0.845,1.623-1.742,2.329-2.681l-34.736-34.7C355.535,352.547,354.64,353.319,353.797,354.162z"/><path d="M346.526,371.694c0,6.628,2.581,12.853,7.267,17.527c4.684,4.681,10.914,7.257,17.545,7.257   c1.747,0,3.465-0.184,5.136-0.533L347.06,366.56C346.711,368.23,346.526,369.947,346.526,371.694z"/><path d="M371.339,346.908c-1.744,0-3.459,0.183-5.127,0.531l29.407,29.376c0.349-1.666,0.531-3.379,0.531-5.121   c0-6.628-2.581-12.853-7.268-17.529C384.199,349.484,377.969,346.908,371.339,346.908z"/><path d="M407.682,425.055c-1.279,0-2.558-0.487-3.534-1.463l-6.334-6.328l-13.032,13.022l12.64,12.617l45.209-45.159   l-12.628-12.643l-13.043,13.033l6.319,6.313c1.954,1.951,1.956,5.117,0.004,7.07c-0.977,0.978-2.257,1.467-3.537,1.467   c-1.279,0-2.558-0.487-3.533-1.463l-6.326-6.319l-4.998,4.994l6.328,6.322c1.953,1.951,1.955,5.117,0.003,7.071   C410.243,424.565,408.963,425.055,407.682,425.055z"/><path d="M395.945,396.302c-0.834,0.834-1.705,1.619-2.605,2.356l4.474,4.47l4.999-4.994l-4.477-4.472   C397.588,394.575,396.792,395.457,395.945,396.302z"/><polygon points="123.161,104.645 251.884,233.231 258.306,226.805 129.573,98.24  "/><path d="M246.9,252.364l97.448,97.352c0.745-0.91,1.539-1.789,2.383-2.631c0.837-0.836,1.709-1.623,2.613-2.362l-97.455-97.352   L246.9,252.364z"/><path d="M455.925,320.799c-15.862-15.859-25.096-19.296-35.786-23.274c-15.385-5.727-32.823-12.218-71.89-51.254   c-20.866-20.834-52.919-26.898-80.024-15.245l-9.267,9.273l99.261,99.156c4.11-1.668,8.546-2.547,13.119-2.547   c9.3,0,18.04,3.615,24.609,10.18c6.578,6.563,10.202,15.303,10.202,24.606c0,4.566-0.878,8.995-2.545,13.099l6.279,6.273   l16.587-16.574c0.938-0.937,2.209-1.463,3.534-1.463c0.001,0,0.002,0,0.002,0c1.327,0.001,2.599,0.528,3.535,1.467l19.696,19.719   c1.952,1.953,1.95,5.119-0.004,7.07l-52.279,52.222c-0.975,0.976-2.255,1.463-3.533,1.463s-2.557-0.487-3.532-1.461l-19.716-19.682   c-0.939-0.939-1.468-2.211-1.468-3.538c0-1.327,0.527-2.6,1.466-3.538l16.567-16.555l-6.274-6.268   c-4.112,1.67-8.552,2.55-13.127,2.55c-9.301,0-18.041-3.615-24.61-10.18c-6.578-6.562-10.202-15.301-10.202-24.605   c0-4.57,0.879-9.003,2.55-13.11l-99.244-99.147l-9.27,9.276c-11.736,27.025-5.672,59.031,15.238,79.91   c39.076,39.023,45.57,56.438,51.3,71.802c3.982,10.679,7.422,19.901,23.287,35.754c37.361,37.35,98.161,37.366,135.538,0.037   c18.096-18.108,28.064-42.165,28.064-67.737C483.988,362.909,474.021,338.873,455.925,320.799z"/><polygon points="232.758,252.37 104.022,123.763 97.604,130.174 226.339,258.793  "/><polygon points="111.097,116.695 239.826,245.297 244.816,240.305 116.087,111.712  "/><path d="M72.603,85.307c1.951-1.952,5.117-1.956,7.071-0.003l24.335,24.311l4.991-4.982L84.687,80.345   c-1.954-1.951-1.955-5.117-0.004-7.07c1.952-1.954,5.118-1.957,7.071-0.004l24.322,24.296l9.957-9.939   c0.025-0.025,0.056-0.042,0.081-0.066l4.982-4.977l-11.684-7.316l6.979-6.974l1.943,1.936c0.976,0.972,2.251,1.457,3.528,1.457   c1.283,0,2.566-0.491,3.543-1.472c1.949-1.957,1.942-5.123-0.015-7.071l-5.283-5.261c-0.059-0.065-0.103-0.141-0.167-0.204   c-0.067-0.067-0.146-0.113-0.215-0.176l-5.291-5.269c-1.957-1.949-5.123-1.942-7.071,0.015c-1.949,1.957-1.942,5.123,0.015,7.071   l1.926,1.918l-7.39,7.385c-0.405,0.405-0.706,0.87-0.943,1.358L82.695,52.275l6.978-6.973l1.948,1.943   c0.976,0.974,2.253,1.46,3.531,1.46c1.281,0,2.563-0.49,3.54-1.469c1.95-1.955,1.946-5.121-0.009-7.071l-5.434-5.42   c-0.014-0.016-0.024-0.033-0.039-0.048c-0.015-0.016-0.034-0.025-0.049-0.04l-5.415-5.401c-1.954-1.95-5.121-1.945-7.071,0.009   c-1.95,1.955-1.946,5.121,0.009,7.071l1.908,1.903l-7.408,7.402c-0.401,0.401-0.699,0.861-0.936,1.344l-2.943-1.843L44.416,71.98   l2.57,4.094c-0.382,0.217-0.75,0.468-1.076,0.794l-7.419,7.414l-1.948-1.943c-1.955-1.95-5.121-1.944-7.071,0.009   c-1.95,1.955-1.946,5.121,0.009,7.071l5.429,5.415c0.016,0.017,0.026,0.036,0.042,0.053c0.017,0.017,0.037,0.027,0.054,0.044   l5.449,5.436c0.976,0.974,2.253,1.46,3.531,1.46c1.282,0,2.563-0.49,3.54-1.469c1.95-1.955,1.946-5.121-0.009-7.071l-1.946-1.941   l6.761-6.756l17.674,28.148c-0.385,0.218-0.755,0.471-1.083,0.799l-7.423,7.432l-1.944-1.933c-1.958-1.946-5.124-1.938-7.071,0.021   c-1.947,1.958-1.938,5.124,0.021,7.071l10.973,10.909c0.976,0.97,2.25,1.454,3.525,1.454c1.284,0,2.569-0.492,3.546-1.475   c1.947-1.958,1.938-5.124-0.021-7.071l-1.937-1.926l6.76-6.768l6.566,10.458l4.88-4.874c0.063-0.071,0.112-0.151,0.179-0.219   l9.954-9.937L72.606,92.378C70.653,90.427,70.651,87.261,72.603,85.307z"/></g><text x="28.012" y="499.20099999999996" fill="#000000" font-size="5px" font-weight="bold" font-family="'Helvetica Neue', Helvetica, Arial-Unicode, Arial, Sans-serif">Created by ibrandify</text><text x="28.012" y="504.20099999999996" fill="#000000" font-size="5px" font-weight="bold" font-family="'Helvetica Neue', Helvetica, Arial-Unicode, Arial, Sans-serif">from the Noun Project</text></svg>