<svg xmlns="http://www.w3.org/2000/svg" xmlns:xlink="http://www.w3.org/1999/xlink" version="1.1" x="0px" y="0px" viewBox="0 0 70 87.5" style="enable-background:new 0 0 70 70;" xml:space="preserve"><style type="text/css">
	.st0{fill:none;stroke:#000000;stroke-width:2;stroke-linecap:round;stroke-miterlimit:10;}
	.st1{fill:none;}
	.st2{fill:none;stroke:#000000;stroke-width:2;stroke-miterlimit:10;}
	.st3{fill:none;stroke:#000000;stroke-width:2;stroke-linecap:round;stroke-linejoin:round;stroke-miterlimit:10;}
</style><g><g><path d="M64,57H6c-1.6542969,0-3-1.3457031-3-3V16c0-1.6542969,1.3457031-3,3-3h58c1.6542969,0,3,1.3457031,3,3v38    C67,55.6542969,65.6542969,57,64,57z M6,15c-0.5512695,0-1,0.4487305-1,1v38c0,0.5512695,0.4487305,1,1,1h58    c0.5512695,0,1-0.4487305,1-1V16c0-0.5512695-0.4487305-1-1-1H6z"/></g><g><g><rect x="9" y="19" width="2" height="9"/></g><g><rect x="7" y="21" width="6" height="2"/></g></g><g><g><rect x="25" y="19" width="2" height="9"/></g><g><rect x="23" y="21" width="6" height="2"/></g></g><g><g><rect x="17" y="19" width="2" height="9"/></g><g><rect x="15" y="24" width="6" height="2"/></g></g><g><path d="M32,28c-0.2631836,0-0.515625-0.1035156-0.7026367-0.2885742C31.1069336,27.5234375,31,27.2670898,31,27v-7    c0-0.5478516,0.4404297-0.9931641,0.9882813-1l14-0.1669922c0.2758789,0.0268555,0.5249023,0.1010742,0.7143555,0.2885742    C46.8930664,19.3095703,47,19.565918,47,19.8330078v7c0,0.5478516-0.4404297,0.9931641-0.9882813,1l-14,0.1669922    C32.0078125,28,32.0039063,28,32,28z M46,26.8330078h0.0097656H46z M33,20.9882813v4.9995117l12-0.1430664v-4.9995117    L33,20.9882813z"/></g><g><path d="M52,26.5c-1.6542969,0-3-1.3457031-3-3s1.3457031-3,3-3s3,1.3457031,3,3S53.6542969,26.5,52,26.5z M52,22.5    c-0.5512695,0-1,0.4487305-1,1s0.4487305,1,1,1s1-0.4487305,1-1S52.5512695,22.5,52,22.5z"/></g><g><path d="M60,26.5c-1.6542969,0-3-1.3457031-3-3s1.3457031-3,3-3s3,1.3457031,3,3S61.6542969,26.5,60,26.5z M60,22.5    c-0.5512695,0-1,0.4487305-1,1s0.4487305,1,1,1s1-0.4487305,1-1S60.5512695,22.5,60,22.5z"/></g><g><path d="M60,57H10c-0.5522461,0-1-0.4477539-1-1V33c0-0.5522461,0.4477539-1,1-1h50c0.5522461,0,1,0.4477539,1,1v23    C61,56.5522461,60.5522461,57,60,57z M11,55h48V34H11V55z"/></g><g><path d="M20,47h-4c-0.5522461,0-1-0.4477539-1-1V33c0-0.5522461,0.4477539-1,1-1h4c0.5522461,0,1,0.4477539,1,1v13    C21,46.5522461,20.5522461,47,20,47z M17,45h2V34h-2V45z"/></g><g><path d="M29,47h-4c-0.5522461,0-1-0.4477539-1-1V33c0-0.5522461,0.4477539-1,1-1h4c0.5522461,0,1,0.4477539,1,1v13    C30,46.5522461,29.5522461,47,29,47z M26,45h2V34h-2V45z"/></g><g><path d="M29,47h-4c-0.5522461,0-1-0.4477539-1-1V33c0-0.5522461,0.4477539-1,1-1h4c0.5522461,0,1,0.4477539,1,1v13    C30,46.5522461,29.5522461,47,29,47z M26,45h2V34h-2V45z"/></g><g><path d="M38,47h-4c-0.5522461,0-1-0.4477539-1-1V33c0-0.5522461,0.4477539-1,1-1h4c0.5522461,0,1,0.4477539,1,1v13    C39,46.5522461,38.5522461,47,38,47z M35,45h2V34h-2V45z"/></g><g><path d="M47,47h-4c-0.5522461,0-1-0.4477539-1-1V33c0-0.5522461,0.4477539-1,1-1h4c0.5522461,0,1,0.4477539,1,1v13    C48,46.5522461,47.5522461,47,47,47z M44,45h2V34h-2V45z"/></g><g><path d="M18,57c-0.5522461,0-1-0.4477539-1-1V46c0-0.5522461,0.4477539-1,1-1s1,0.4477539,1,1v10    C19,56.5522461,18.5522461,57,18,57z"/></g><g><path d="M27,57c-0.5522461,0-1-0.4477539-1-1V46c0-0.5522461,0.4477539-1,1-1s1,0.4477539,1,1v10    C28,56.5522461,27.5522461,57,27,57z"/></g><g><path d="M27,57c-0.5522461,0-1-0.4477539-1-1V46c0-0.5522461,0.4477539-1,1-1s1,0.4477539,1,1v10    C28,56.5522461,27.5522461,57,27,57z"/></g><g><path d="M36,57c-0.5522461,0-1-0.4477539-1-1V46c0-0.5522461,0.4477539-1,1-1s1,0.4477539,1,1v10    C37,56.5522461,36.5522461,57,36,57z"/></g><g><path d="M45,57c-0.5522461,0-1-0.4477539-1-1V46c0-0.5522461,0.4477539-1,1-1s1,0.4477539,1,1v10    C46,56.5522461,45.5522461,57,45,57z"/></g><g><rect x="26" y="46" width="2" height="10"/></g></g><text x="0" y="85" fill="#000000" font-size="5px" font-weight="bold" font-family="'Helvetica Neue', Helvetica, Arial-Unicode, Arial, Sans-serif">Created by DinosoftLab</text><text x="0" y="90" fill="#000000" font-size="5px" font-weight="bold" font-family="'Helvetica Neue', Helvetica, Arial-Unicode, Arial, Sans-serif">from the Noun Project</text></svg>