<svg xmlns="http://www.w3.org/2000/svg" xmlns:xlink="http://www.w3.org/1999/xlink" version="1.1" x="0px" y="0px" viewBox="0 0 512 640" style="enable-background:new 0 0 512 512;" xml:space="preserve"><g><g><g><g><path d="M478.469,303.113c-10.943-14.409-28.079-27.814-48.249-37.748c-19.951-9.824-40.834-15.235-58.802-15.235      c-20.841,0-35.871,7.216-42.323,20.319c-5.23,10.619-3.949,23.37,3.5,36.623v67.279c0,11.053-8.993,20.045-20.047,20.045      c-9.383,0-17.104-7.621-17.214-16.988c-0.508-43.811-2.609-88.219-4.728-131.355h20.381c0,5.522,4.478,10,10,10s10-4.478,10-10      v-20c0-5.523-4.478-10-10-10s-10,4.477-10,10h-21.361c-0.485-9.941-0.966-19.951-1.423-30h22.784c0,5.522,4.478,10,10,10      s10-4.478,10-10v-20c0-5.523-4.478-10-10-10s-10,4.477-10,10h-23.65c-0.413-9.999-0.786-20.007-1.107-30h24.758      c0,5.522,4.478,10,10,10s10-4.478,10-10v-20c0-5.523-4.478-10-10-10s-10,4.477-10,10h-25.319      c-0.037-1.564-0.083-3.134-0.117-4.696c-0.452-20.787-4.521-40.01-12.095-57.134c-15.058-34.049-38.431-51.313-69.468-51.313      c-6.39,0-13.223,0.741-20.311,2.204c-9.893,2.042-19.021,6.759-26.401,13.641c-13.4,12.497-25.569,18.801-38.028,19.668v-2.521      c0-5.523-4.477-10-10-10H79.9c-5.522,0-10,4.477-10,10v9.565H50.553c-3.344,0-6.466,1.671-8.32,4.453L22.667,89.268      c-2.046,3.068-2.236,7.014-0.496,10.266c1.74,3.251,5.129,5.281,8.816,5.281H69.9v9.564c0,5.523,4.478,10,10,10h29.348      c5.051,0,9.216-3.748,9.893-8.612c20.096-0.117,38.106-9.261,55.046-27.965c4.447-4.912,9.725-8.477,15.262-10.309      c8.802-2.913,16.021-1.224,21.436,5.052c4.518,5.236,6.309,12.186,5.864,15.189c-0.072,0.485-0.108,0.975-0.108,1.464v46.057      c-11.396,4.108-19.565,15.026-19.565,27.82c0,12.793,8.17,23.712,19.565,27.82v12.837      c-11.396,4.108-19.565,15.027-19.565,27.821c0,12.793,8.17,23.712,19.565,27.82v12.837      c-11.396,4.108-19.565,15.027-19.565,27.82c0,12.794,8.17,23.712,19.565,27.82v44.414c0,22.615,9.231,46.613,27.438,71.33      c9.278,12.596,20.744,22.9,34.082,30.628c7.106,4.117,14.676,7.403,22.542,9.835c10.715,3.312,21.984,5.031,33.414,5.031      c0.001,0,0.003,0,0.005,0c11.529,0,22.922-1.693,33.993-5.031c3.313-1,6.598-2.139,9.848-3.432      c21.769-8.664,37.769-20.828,48.913-37.188c12.106-17.77,18.034-40.554,17.618-67.719c-0.003-0.154-0.009-0.307-0.018-0.461      c-0.756-12.298,3.807-15.273,7.06-16.548c17.706-1.28,30.492-8.286,36.304-20.087      C494.229,335.646,490.902,319.484,478.469,303.113z M226.64,319.596c-5.274,0-9.565-4.29-9.565-9.564      c0-5.273,4.291-9.564,9.565-9.564s9.565,4.291,9.565,9.564C236.205,315.306,231.914,319.596,226.64,319.596z M226.64,251.119      c-5.274,0-9.565-4.291-9.565-9.565s4.291-9.565,9.565-9.565s9.565,4.291,9.565,9.565S231.914,251.119,226.64,251.119z       M226.64,182.641c-5.274,0-9.565-4.291-9.565-9.565s4.291-9.565,9.565-9.565s9.565,4.291,9.565,9.565      S231.914,182.641,226.64,182.641z"/><path d="M434.508,143.024l-8.409,18.697c-1.35-0.968-2.805-1.811-4.354-2.508c-3.251-1.462-6.697-2.203-10.245-2.203      c-9.826,0-18.779,5.79-22.809,14.75c-5.653,12.572-0.025,27.4,12.547,33.054c3.251,1.462,6.697,2.203,10.245,2.203      c9.826,0,18.779-5.79,22.809-14.749c0.001-0.003,0.002-0.005,0.003-0.008l6.206-13.799c2.631,3.089,6.07,5.732,10.514,7.618      c2.757,1.17,3.627,2.25,3.729,2.567c0.169,0.522-0.247,1.896-0.707,2.653l0.112-0.172l16.6,11.155      c0.633-0.94,6.095-9.479,3.17-19.323c-1.379-4.64-5.117-11.06-15.092-15.292c-8.229-3.492-5.443-18.335-5.424-18.433      c1.08-5.002-1.79-10.012-6.651-11.61C441.891,136.027,436.606,138.357,434.508,143.024z"/><path d="M105.022,377.568c-8.928,0.405-12.867-14.149-12.893-14.246c-1.2-4.975-5.957-8.242-11.034-7.568      c-5.073,0.672-8.82,5.065-8.684,10.182l0.548,20.482c-1.619-0.275-3.294-0.402-5.011-0.357      c-13.78,0.369-24.69,11.879-24.323,25.66c0.365,13.644,11.34,24.331,24.983,24.331c0.225,0,0.451-0.003,0.676-0.009      c6.676-0.178,12.883-2.945,17.477-7.793c4.594-4.846,7.025-11.191,6.847-17.866c0-0.001,0-0.001,0-0.001l-0.404-15.131      c3.71,1.639,7.96,2.521,12.778,2.293c2.998-0.141,4.245,0.453,4.475,0.693c0.379,0.398,0.601,1.815,0.517,2.697l0.025-0.203      l19.798,2.838c0.161-1.123,1.372-11.187-5.539-18.783C122.001,381.207,115.854,377.047,105.022,377.568z"/><path d="M145.768,307.862l-0.541-20.204c4.625,2.53,10.068,3.98,16.41,3.68c3.11-0.148,5.515,0.337,6.427,1.303      c1,1.059,1.123,3.452,1.025,4.381l0.022-0.168l19.798,2.837c0.176-1.226,1.498-12.212-6.024-20.479      c-3.547-3.898-10.29-8.428-22.208-7.85c-11.838,0.563-16.545-17.603-16.58-17.743c-1.2-4.975-5.96-8.241-11.034-7.568      c-5.073,0.673-8.82,5.065-8.684,10.181l0.689,25.78c-2.362-0.581-4.848-0.867-7.419-0.802      c-15.1,0.404-27.056,13.018-26.652,28.117c0.4,14.951,12.426,26.663,27.377,26.663c0.246,0,0.493-0.003,0.741-0.01      c7.314-0.196,14.115-3.228,19.149-8.538C143.299,322.13,145.963,315.177,145.768,307.862z"/><path d="M380.845,62.5l17.247,11.095c-1.157,1.189-2.211,2.5-3.132,3.931c-7.457,11.594-4.093,27.093,7.5,34.551      c4.044,2.602,8.716,3.977,13.512,3.977c8.552,0,16.417-4.291,21.039-11.477c3.613-5.615,4.822-12.303,3.406-18.829      c-1.417-6.525-5.29-12.109-10.906-15.722l-12.731-8.19c3.445-2.143,6.57-5.151,9.095-9.265      c2.889-4.708,1.414-10.865-3.293-13.754c-4.708-2.889-10.865-1.413-13.754,3.294c-4.676,7.621-18.938,2.66-19.034,2.626      c-4.786-1.811-10.167,0.284-12.469,4.854C375.021,54.16,376.541,59.731,380.845,62.5z"/><path d="M170.987,406.053c-16.542,0-30,13.457-30,30c0,16.541,13.458,30,30,30s30-13.459,30-30      C200.987,419.51,187.529,406.053,170.987,406.053z"/><path d="M85.987,226.053c19.299,0,35-15.701,35-35s-15.701-35-35-35s-35,15.701-35,35S66.688,226.053,85.987,226.053z"/></g></g></g></g><text x="0" y="527" fill="#000000" font-size="5px" font-weight="bold" font-family="'Helvetica Neue', Helvetica, Arial-Unicode, Arial, Sans-serif">Created by Flatart</text><text x="0" y="532" fill="#000000" font-size="5px" font-weight="bold" font-family="'Helvetica Neue', Helvetica, Arial-Unicode, Arial, Sans-serif">from the Noun Project</text></svg>